<?xml version="1.0" encoding="iso-8859-1"?>
<!-- Generator: Adobe Illustrator 19.0.0, SVG Export Plug-In . SVG Version: 6.00 Build 0)  -->
<svg version="1.1" id="Capa_1" xmlns="http://www.w3.org/2000/svg" xmlns:xlink="http://www.w3.org/1999/xlink" x="0px" y="0px"
	 viewBox="0 0 512 512" style="enable-background:new 0 0 512 512;" xml:space="preserve">
<path style="fill:#FFC44F;" d="M436.937,89.705c-2.561-2.008-6.081-2.265-8.906-0.65L321.972,149.66l-59.725-74.657
	C260.729,73.104,258.43,72,256,72s-4.729,1.104-6.247,3.002l-59.725,74.657L83.969,89.054c-2.825-1.614-6.344-1.358-8.906,0.65
	c-2.56,2.007-3.649,5.365-2.756,8.493l32,112c0.981,3.435,4.121,5.802,7.692,5.802h288c3.572,0,6.711-2.368,7.692-5.802l32-112
	C440.586,95.07,439.497,91.712,436.937,89.705z"/>
<g>
	<path style="fill:#F79F4D;" d="M128.307,210.198l-32-112c-0.214-0.749-0.308-1.511-0.301-2.265l-12.037-6.878
		c-2.825-1.614-6.344-1.358-8.906,0.65c-2.56,2.007-3.649,5.365-2.756,8.493l32,112c0.981,3.435,4.121,5.802,7.692,5.802h24
		C132.428,216,129.289,213.632,128.307,210.198z"/>
	<path style="fill:#F79F4D;" d="M256,0c-22.056,0-40,17.944-40,40s17.944,40,40,40s40-17.944,40-40S278.056,0,256,0z"/>
</g>
<path style="fill:#DB8C51;" d="M272,72c-22.056,0-40-17.944-40-40c0-12.417,5.687-23.53,14.594-30.872
	C229.063,5.371,216,21.184,216,40c0,22.056,17.944,40,40,40c9.639,0,18.493-3.428,25.406-9.128C278.388,71.603,275.24,72,272,72z"/>
<path style="fill:#F79F4D;" d="M448,24c-22.056,0-40,17.944-40,40s17.944,40,40,40s40-17.944,40-40S470.056,24,448,24z"/>
<path style="fill:#DB8C51;" d="M464,88c-22.056,0-40-17.944-40-40c0-6.922,1.769-13.439,4.877-19.123
	C416.449,35.67,408,48.866,408,64c0,22.056,17.944,40,40,40c15.134,0,28.33-8.449,35.123-20.877C477.439,86.231,470.922,88,464,88z"
	/>
<path style="fill:#F79F4D;" d="M64,24c-22.056,0-40,17.944-40,40s17.944,40,40,40s40-17.944,40-40S86.056,24,64,24z"/>
<path style="fill:#DB8C51;" d="M80,88c-22.056,0-40-17.944-40-40c0-6.922,1.769-13.439,4.877-19.123C32.449,35.67,24,48.866,24,64
	c0,22.056,17.944,40,40,40c15.134,0,28.33-8.449,35.123-20.877C93.439,86.231,86.922,88,80,88z"/>
<path style="fill:#F79F4D;" d="M408,208H104v56c0,4.418,3.582,8,8,8h288c4.418,0,8-3.582,8-8V208z"/>
<path style="fill:#DB8C51;" d="M128,264v-56h-24v56c0,4.418,3.582,8,8,8h24C131.582,272,128,268.418,128,264z"/>
<path style="fill:#68727E;" d="M408,256H104v216c0,22.091,17.909,40,40,40h224c22.091,0,40-17.909,40-40V256z"/>
<path style="fill:#55606E;" d="M128,472V256h-24v216c0,22.091,17.909,40,40,40h24C145.909,512,128,494.091,128,472z"/>
<path style="fill:#C6CACF;" d="M256,280c-57.346,0-104,46.654-104,104s46.654,104,104,104s104-46.654,104-104S313.346,280,256,280z"
	/>
<path style="fill:#ECEDEF;" d="M256,296c-48.523,0-88,39.477-88,88s39.477,88,88,88s88-39.477,88-88S304.523,296,256,296z"/>
<g>
	<path style="fill:#8E959F;" d="M256,320c4.418,0,8-3.582,8-8v-31.695c-2.641-0.202-5.309-0.305-8-0.305s-5.359,0.103-8,0.305V312
		C248,316.418,251.582,320,256,320z"/>
	<path style="fill:#8E959F;" d="M256,448c-4.418,0-8,3.582-8,8v31.695c2.641,0.202,5.309,0.305,8,0.305c2.691,0,5.359-0.103,8-0.305
		V456C264,451.582,260.418,448,256,448z"/>
	<path style="fill:#8E959F;" d="M359.695,376H328c-4.418,0-8,3.582-8,8s3.582,8,8,8h31.695c0.202-2.641,0.305-5.309,0.305-8
		S359.897,378.641,359.695,376z"/>
	<path style="fill:#8E959F;" d="M192,384c0-4.418-3.582-8-8-8h-31.695c-0.202,2.641-0.305,5.309-0.305,8s0.103,5.359,0.305,8H184
		C188.418,392,192,388.418,192,384z"/>
</g>
<path style="fill:#DB6B5E;" d="M256.002,392c-2.06,0-4.108-0.792-5.659-2.343l-40-40c-3.125-3.124-3.125-8.189,0-11.313
	c3.124-3.124,8.189-3.124,11.313,0l35.094,35.094L283.2,353.6c3.535-2.651,8.549-1.935,11.2,1.6c2.651,3.534,1.935,8.549-1.6,11.2
	l-32,24C259.37,391.473,257.682,392,256.002,392z"/>
<g>
</g>
<g>
</g>
<g>
</g>
<g>
</g>
<g>
</g>
<g>
</g>
<g>
</g>
<g>
</g>
<g>
</g>
<g>
</g>
<g>
</g>
<g>
</g>
<g>
</g>
<g>
</g>
<g>
</g>
</svg>
